<?xml version="1.0" encoding="UTF-8"?>
<svg xmlns="http://www.w3.org/2000/svg" viewBox="0 0 200 200">
  <defs>
    <style>
      .cls-1 {
        fill: #1e2235;
      }

      .cls-2 {
        fill: #ee768e;
      }

      @media (prefers-color-scheme: dark) {
        .cls-1 {
          fill: #ee768e;
        }

        .cls-2 {
          fill: #1e2235;
        }
      }
    </style>
  </defs>
  <rect class="cls-1" width="200" height="200"/>
  <g>
    <path class="cls-2" d="M91.8279292658,70.8915035117l-44.5946144857,32.2632900466v.8600328936l44.5946144857,32.2632900466-10.252576709,14.1242317973-54.2735010286-39.2179018336v-15.1992729143l54.2735010286-39.2179018336,10.252576709,14.1242317973Z"/>
    <path class="cls-2" d="M145.3097177708,64.1518999482h-45.9570030415l5.1617044287-17.3503598597h58.7193486387l3.2251233511,16.9203434129-22.5839011481,26.3123848727c17.7813810179,5.3058805037,28.8231584722,13.6942153505,28.8231584722,27.1010832623,0,17.063012421-17.7813810179,36.0631082752-54.6321829713,36.0631082752-4.8768687683,0-8.1019921193-.2873474388-10.5394217921-.5736901662l-4.1595048827-19.5014468051c3.7294884359.6450246702,8.4616787734,1.2900493404,15.3439513451,1.2900493404,17.2066861403,0,36.1334380679-4.014826452,36.1334380679-14.9119254756,0-9.4643806751-13.9072141513-14.4115792361-37.3531576157-18.9277566389l-.2150082234-2.2224214494,28.0334553712-34.1993687686Z"/>
  </g>
</svg>
