<?xml version="1.0" encoding="UTF-8"?>
<svg id="Ebene_1" data-name="Ebene 1" xmlns="http://www.w3.org/2000/svg" viewBox="0 0 200 200">
  <defs>
    <style>
      .cls-1 {
        fill: #1e2235;
      }

      .cls-2 {
        fill: #ee768e;
      }
    </style>
  </defs>
  <rect class="cls-1" width="200" height="200"/>
  <g>
    <path class="cls-2" d="M94.1697951031,79.2230674349l-31.8308167362,23.0282997611v.6140327686l31.8308167362,23.0288174953-7.3181730057,10.0813204647-38.7389442506-27.9923353309v-10.8491202926l38.7389442506-27.9928530651,7.3181730057,10.0818381989Z"/>
    <path class="cls-2" d="M132.3387139926,74.4122811902h-32.8031215756l3.6847143461-12.3842022142h41.9126549351l2.3028817495,12.0771858299-16.1201722467,18.781326067c12.6907008643,3.7867079847,20.5716509523,9.7743040803,20.5716509523,19.3441031492,0,12.1796972027-12.6907008643,25.741227002-38.9947049485,25.741227002-3.4802093346,0-5.7830910841-.2050227457-7.5226780172-.4100454914l-2.9686879388-13.9192841358c2.6611538203.4607834436,6.038851782.921049153,10.9521493996.921049153,12.2816908413,0,25.79144722-2.8656588317,25.79144722-10.6440975469,0-6.7553959235-9.9270356712-10.2863432103-26.6612406865-13.5102741128l-.1542847935-1.586337608,20.0093916042-24.4106500918Z"/>
  </g>
</svg>