<?xml version="1.0" encoding="UTF-8"?>
<svg id="Ebene_1" data-name="Ebene 1" xmlns="http://www.w3.org/2000/svg" viewBox="0 0 200 200">
  <defs>
    <style>
      .cls-1 {
        fill: #1e2235;
      }

      .cls-2 {
        fill: #292e42;
      }

      .cls-3 {
        fill: #ee768e;
      }
    </style>
  </defs>
  <rect class="cls-1" width="200" height="200"/>
  <polygon class="cls-2" points="128.3573122253 120.1251699785 0 120.1251699785 0 0 128.3573122253 0 172.6981484718 60.0625849892 128.3573122253 120.1251699785"/>
  <g>
    <path class="cls-3" d="M66.6118164062,41.8745117188l-30.0200195312,21.7182617188v.5791015625l30.0200195312,21.71875-6.9018554688,9.5078125-36.53515625-26.3999023438v-10.2319335938l36.53515625-26.400390625,6.9018554688,9.5083007812Z"/>
    <path class="cls-3" d="M102.609375,37.3374023438h-30.9370117188l3.4750976562-11.6796875h39.5283203125l2.171875,11.3901367188-15.203125,17.712890625c11.96875,3.5712890625,19.4013671875,9.2182617188,19.4013671875,18.2436523438,0,11.4868164062-11.96875,24.2768554688-36.7768554688,24.2768554688-3.2817382812,0-5.4536132812-.193359375-7.0947265625-.38671875l-2.7993164062-13.1274414062c2.509765625.4345703125,5.6953125.8686523438,10.3286132812.8686523438,11.5834960938,0,24.3247070312-2.7026367188,24.3247070312-10.0385742188,0-6.37109375-9.3627929688-9.701171875-25.1450195312-12.7416992188l-.1450195312-1.49609375,18.87109375-23.0219726562Z"/>
  </g>
</svg>